<svg width="364" height="53" viewBox="0 0 364 53" fill="none" xmlns="http://www.w3.org/2000/svg">
<g filter="url(#filter0_i_31_35)">
<path d="M10.5957 11.499C9.84701 11.499 9.10645 11.5234 8.37402 11.5723V36.7676C8.37402 37.1257 8.43913 37.4268 8.56934 37.6709C8.78092 37.9639 9.18783 38.1836 9.79004 38.3301C10.3923 38.4603 11.32 38.5254 12.5732 38.5254C13.6312 38.5254 14.738 38.265 15.8936 37.7441C17.0492 37.207 18.1071 36.3932 19.0674 35.3027C20.0277 34.2122 20.8171 32.8369 21.4355 31.1768C22.054 29.5003 22.3633 27.5146 22.3633 25.2197C22.3633 23.055 22.1029 21.1263 21.582 19.4336C21.0775 17.7246 20.3206 16.2842 19.3115 15.1123C18.3187 13.9404 17.0898 13.0452 15.625 12.4268C14.1764 11.8083 12.5 11.499 10.5957 11.499ZM27.3193 24.2676C27.3193 26.3021 27.1077 28.125 26.6846 29.7363C26.2777 31.3314 25.7161 32.7474 25 33.9844C24.3001 35.2051 23.4782 36.2467 22.5342 37.1094C21.6064 37.9557 20.6217 38.6556 19.5801 39.209C18.5384 39.7461 17.4723 40.1449 16.3818 40.4053C15.2913 40.6494 14.2415 40.7715 13.2324 40.7715H0.268555V39.4775C1.37533 39.2497 2.22982 39.0055 2.83203 38.7451C3.43424 38.4684 3.73535 38.2161 3.73535 37.9883V12.0117C3.10059 12.0931 2.49023 12.1745 1.9043 12.2559C1.31836 12.3372 0.773112 12.4186 0.268555 12.5L0 10.7422C0.748698 10.5469 1.61947 10.3597 2.6123 10.1807C3.60514 10.0016 4.64681 9.84701 5.7373 9.7168C6.8278 9.57031 7.93457 9.46452 9.05762 9.39941C10.1807 9.31803 11.2386 9.27734 12.2314 9.27734C14.5752 9.27734 16.6748 9.61914 18.5303 10.3027C20.402 10.9701 21.9889 11.9466 23.291 13.2324C24.5931 14.5182 25.5859 16.0889 26.2695 17.9443C26.9694 19.7998 27.3193 21.9076 27.3193 24.2676ZM40.1992 20.0195C39.3854 20.0195 38.6449 20.1823 37.9775 20.5078C37.3265 20.8171 36.7568 21.2646 36.2686 21.8506C35.7803 22.4202 35.3734 23.112 35.0479 23.9258C34.7386 24.7396 34.5189 25.6348 34.3887 26.6113H44.0566C44.431 26.6113 44.6751 26.5544 44.7891 26.4404C44.9193 26.3102 44.9844 26.0742 44.9844 25.7324C44.9844 25.2767 44.9193 24.7233 44.7891 24.0723C44.6589 23.4212 44.4147 22.7946 44.0566 22.1924C43.7148 21.5902 43.2347 21.0775 42.6162 20.6543C41.9977 20.2311 41.1921 20.0195 40.1992 20.0195ZM49.5986 27.2217C49.3057 27.5472 48.8743 27.8727 48.3047 28.1982C47.735 28.5075 47.1898 28.7679 46.6689 28.9795H34.2666C34.2829 30.2165 34.4538 31.3883 34.7793 32.4951C35.1048 33.5856 35.5605 34.5378 36.1465 35.3516C36.7324 36.1654 37.4404 36.8164 38.2705 37.3047C39.1169 37.7767 40.069 38.0127 41.127 38.0127C41.6315 38.0127 42.1198 37.9801 42.5918 37.915C43.0801 37.8499 43.6009 37.7116 44.1543 37.5C44.7077 37.2721 45.3262 36.9466 46.0098 36.5234C46.6934 36.1003 47.499 35.5306 48.4268 34.8145C48.6383 34.9284 48.8418 35.1237 49.0371 35.4004C49.2324 35.6771 49.3708 35.8805 49.4521 36.0107C48.3454 37.1826 47.3688 38.1266 46.5225 38.8428C45.6761 39.5589 44.8704 40.1204 44.1055 40.5273C43.3568 40.918 42.6081 41.1784 41.8594 41.3086C41.127 41.4388 40.3213 41.5039 39.4424 41.5039C38.1403 41.5039 36.9033 41.2354 35.7314 40.6982C34.5758 40.1449 33.5586 39.3717 32.6797 38.3789C31.8008 37.3861 31.1009 36.1898 30.5801 34.79C30.0592 33.3903 29.7988 31.8278 29.7988 30.1025C29.7988 29.012 29.9128 27.946 30.1406 26.9043C30.3848 25.8626 30.7266 24.8861 31.166 23.9746C31.6217 23.0632 32.1751 22.2168 32.8262 21.4355C33.4772 20.6543 34.2259 19.9707 35.0723 19.3848C35.4629 19.1081 35.8942 18.8477 36.3662 18.6035C36.8382 18.3594 37.3265 18.1478 37.8311 17.9688C38.3519 17.7734 38.8809 17.6188 39.418 17.5049C39.9551 17.391 40.4678 17.334 40.9561 17.334C42.014 17.334 42.9661 17.4723 43.8125 17.749C44.6589 18.0257 45.3994 18.4082 46.0342 18.8965C46.6852 19.3685 47.2305 19.93 47.6699 20.5811C48.1257 21.2321 48.4919 21.9238 48.7686 22.6562C49.0615 23.3887 49.2731 24.1455 49.4033 24.9268C49.5335 25.708 49.5986 26.473 49.5986 27.2217ZM74.417 19.3604C73.9287 19.4743 73.5299 19.5801 73.2207 19.6777C72.9277 19.7754 72.6836 19.8893 72.4883 20.0195C72.3092 20.1335 72.1709 20.2718 72.0732 20.4346C71.9756 20.5811 71.8779 20.7764 71.7803 21.0205L64.8711 39.1357C64.7246 39.4938 64.5049 39.8112 64.2119 40.0879C63.9352 40.3483 63.626 40.5762 63.2842 40.7715C62.9424 40.9668 62.5924 41.1214 62.2344 41.2354C61.8763 41.3493 61.5589 41.4388 61.2822 41.5039L53.0303 21.0205C52.8675 20.5648 52.5908 20.223 52.2002 19.9951C51.8096 19.751 51.2074 19.5394 50.3936 19.3604V18.0664H60.3545V19.3604C59.7197 19.4417 59.207 19.5231 58.8164 19.6045C58.4258 19.6859 58.1328 19.7917 57.9375 19.9219C57.7422 20.0358 57.6283 20.1823 57.5957 20.3613C57.5794 20.5404 57.6201 20.7601 57.7178 21.0205L63.4795 35.5469L68.875 21.0205C68.9727 20.7764 69.0133 20.5729 68.9971 20.4102C68.9808 20.2311 68.8831 20.0846 68.7041 19.9707C68.5413 19.8405 68.2809 19.7347 67.9229 19.6533C67.5811 19.5557 67.1172 19.458 66.5312 19.3604V18.0664H74.417V19.3604ZM85.5879 20.0195C84.7741 20.0195 84.0335 20.1823 83.3662 20.5078C82.7152 20.8171 82.1455 21.2646 81.6572 21.8506C81.1689 22.4202 80.762 23.112 80.4365 23.9258C80.1273 24.7396 79.9076 25.6348 79.7773 26.6113H89.4453C89.8197 26.6113 90.0638 26.5544 90.1777 26.4404C90.3079 26.3102 90.373 26.0742 90.373 25.7324C90.373 25.2767 90.3079 24.7233 90.1777 24.0723C90.0475 23.4212 89.8034 22.7946 89.4453 22.1924C89.1035 21.5902 88.6234 21.0775 88.0049 20.6543C87.3864 20.2311 86.5807 20.0195 85.5879 20.0195ZM94.9873 27.2217C94.6943 27.5472 94.263 27.8727 93.6934 28.1982C93.1237 28.5075 92.5785 28.7679 92.0576 28.9795H79.6553C79.6715 30.2165 79.8424 31.3883 80.168 32.4951C80.4935 33.5856 80.9492 34.5378 81.5352 35.3516C82.1211 36.1654 82.8291 36.8164 83.6592 37.3047C84.5055 37.7767 85.4577 38.0127 86.5156 38.0127C87.0202 38.0127 87.5085 37.9801 87.9805 37.915C88.4688 37.8499 88.9896 37.7116 89.543 37.5C90.0964 37.2721 90.7148 36.9466 91.3984 36.5234C92.082 36.1003 92.8877 35.5306 93.8154 34.8145C94.027 34.9284 94.2305 35.1237 94.4258 35.4004C94.6211 35.6771 94.7594 35.8805 94.8408 36.0107C93.734 37.1826 92.7575 38.1266 91.9111 38.8428C91.0648 39.5589 90.2591 40.1204 89.4941 40.5273C88.7454 40.918 87.9967 41.1784 87.248 41.3086C86.5156 41.4388 85.71 41.5039 84.8311 41.5039C83.529 41.5039 82.292 41.2354 81.1201 40.6982C79.9645 40.1449 78.9473 39.3717 78.0684 38.3789C77.1895 37.3861 76.4896 36.1898 75.9688 34.79C75.4479 33.3903 75.1875 31.8278 75.1875 30.1025C75.1875 29.012 75.3014 27.946 75.5293 26.9043C75.7734 25.8626 76.1152 24.8861 76.5547 23.9746C77.0104 23.0632 77.5638 22.2168 78.2148 21.4355C78.8659 20.6543 79.6146 19.9707 80.4609 19.3848C80.8516 19.1081 81.2829 18.8477 81.7549 18.6035C82.2269 18.3594 82.7152 18.1478 83.2197 17.9688C83.7406 17.7734 84.2695 17.6188 84.8066 17.5049C85.3438 17.391 85.8564 17.334 86.3447 17.334C87.4027 17.334 88.3548 17.4723 89.2012 17.749C90.0475 18.0257 90.7881 18.4082 91.4229 18.8965C92.0739 19.3685 92.6191 19.93 93.0586 20.5811C93.5143 21.2321 93.8805 21.9238 94.1572 22.6562C94.4502 23.3887 94.6618 24.1455 94.792 24.9268C94.9222 25.708 94.9873 26.473 94.9873 27.2217ZM96.7588 40.7715V39.4775C97.4587 39.3636 98.0365 39.2497 98.4922 39.1357C98.9642 39.0055 99.3304 38.8835 99.5908 38.7695C99.8675 38.6393 100.063 38.5091 100.177 38.3789C100.291 38.2487 100.348 38.1185 100.348 37.9883V9.375C100.348 8.64258 100.299 8.07292 100.201 7.66602C100.12 7.25911 99.9489 6.95801 99.6885 6.7627C99.4443 6.55111 99.1025 6.41276 98.6631 6.34766C98.2399 6.26628 97.6865 6.1849 97.0029 6.10352V4.88281C97.654 4.76888 98.2725 4.65495 98.8584 4.54102C99.4443 4.41081 100.014 4.27246 100.567 4.12598C101.121 3.97949 101.658 3.80859 102.179 3.61328C102.716 3.41797 103.261 3.1901 103.814 2.92969L104.742 3.80859V37.9883C104.742 38.2324 105.011 38.4847 105.548 38.7451C106.085 39.0055 107.021 39.2497 108.355 39.4775V40.7715H96.7588ZM127.021 29.7852C127.021 28.4993 126.834 27.2786 126.46 26.123C126.086 24.9512 125.589 23.9258 124.971 23.0469C124.368 22.1517 123.669 21.4437 122.871 20.9229C122.09 20.402 121.284 20.1416 120.454 20.1416C119.282 20.1416 118.306 20.3776 117.524 20.8496C116.743 21.3053 116.117 21.9401 115.645 22.7539C115.173 23.5677 114.831 24.528 114.619 25.6348C114.424 26.7415 114.326 27.9378 114.326 29.2236C114.326 30.5094 114.521 31.7301 114.912 32.8857C115.319 34.0251 115.84 35.026 116.475 35.8887C117.109 36.7513 117.817 37.4349 118.599 37.9395C119.38 38.444 120.145 38.6963 120.894 38.6963C121.984 38.6963 122.912 38.4928 123.677 38.0859C124.458 37.6628 125.093 37.0687 125.581 36.3037C126.086 35.5387 126.452 34.6029 126.68 33.4961C126.908 32.3893 127.021 31.1523 127.021 29.7852ZM131.587 28.9307C131.587 30.5583 131.278 32.1289 130.659 33.6426C130.057 35.1562 129.235 36.499 128.193 37.6709C127.152 38.8265 125.939 39.7542 124.556 40.4541C123.188 41.154 121.74 41.5039 120.21 41.5039C118.615 41.5039 117.174 41.2109 115.889 40.625C114.603 40.0391 113.504 39.2334 112.593 38.208C111.681 37.1826 110.973 35.9619 110.469 34.5459C109.98 33.1299 109.736 31.5918 109.736 29.9316C109.736 28.8574 109.867 27.7995 110.127 26.7578C110.404 25.7161 110.786 24.7314 111.274 23.8037C111.763 22.8597 112.349 21.9971 113.032 21.2158C113.732 20.4183 114.505 19.7347 115.352 19.165C116.198 18.5954 117.109 18.1478 118.086 17.8223C119.062 17.4967 120.088 17.334 121.162 17.334C122.741 17.334 124.165 17.627 125.435 18.2129C126.72 18.7988 127.819 19.6126 128.73 20.6543C129.642 21.6797 130.342 22.9004 130.83 24.3164C131.335 25.7324 131.587 27.2705 131.587 28.9307ZM153.061 30.3711C153.061 28.9062 152.89 27.5798 152.548 26.3916C152.222 25.2035 151.783 24.1943 151.229 23.3643C150.692 22.5179 150.066 21.875 149.35 21.4355C148.633 20.9798 147.901 20.752 147.152 20.752C146.859 20.752 146.501 20.8252 146.078 20.9717C145.671 21.1019 145.207 21.346 144.687 21.7041C144.166 22.0459 143.596 22.5098 142.978 23.0957C142.359 23.6816 141.692 24.4222 140.976 25.3174V35.4492C141.757 35.9863 142.457 36.4258 143.075 36.7676C143.71 37.0931 144.288 37.3535 144.809 37.5488C145.346 37.7279 145.834 37.8499 146.273 37.915C146.729 37.9801 147.169 38.0127 147.592 38.0127C148.389 38.0127 149.122 37.8499 149.789 37.5244C150.456 37.1989 151.034 36.7106 151.522 36.0596C152.011 35.4085 152.385 34.611 152.646 33.667C152.922 32.723 153.061 31.6243 153.061 30.3711ZM157.089 28.6865C157.089 29.6794 156.959 30.6803 156.698 31.6895C156.454 32.6986 156.104 33.6833 155.648 34.6436C155.209 35.5876 154.688 36.4827 154.086 37.3291C153.484 38.1592 152.833 38.8835 152.133 39.502C151.449 40.1204 150.725 40.6087 149.96 40.9668C149.211 41.3249 148.463 41.5039 147.714 41.5039C146.754 41.5039 145.704 41.2598 144.564 40.7715C143.425 40.2669 142.229 39.5101 140.976 38.501V49.6826C140.976 49.943 141.277 50.2035 141.879 50.4639C142.497 50.7243 143.572 50.9684 145.102 51.1963V52.4902H133.236V51.1963C134.311 50.9359 135.132 50.6836 135.702 50.4395C136.288 50.2116 136.581 49.9593 136.581 49.6826V23.584C136.581 22.9818 136.549 22.4854 136.483 22.0947C136.435 21.7041 136.296 21.3949 136.068 21.167C135.84 20.9229 135.507 20.752 135.067 20.6543C134.628 20.5404 134.018 20.4671 133.236 20.4346V19.2139C133.92 19.0999 134.538 18.9779 135.092 18.8477C135.661 18.7174 136.199 18.5791 136.703 18.4326C137.208 18.2861 137.704 18.1234 138.192 17.9443C138.681 17.7653 139.185 17.5618 139.706 17.334L140.609 18.2373L140.829 22.4609C141.675 21.5495 142.497 20.7682 143.295 20.1172C144.109 19.4661 144.874 18.9372 145.59 18.5303C146.322 18.1071 146.99 17.806 147.592 17.627C148.21 17.4316 148.756 17.334 149.228 17.334C150.334 17.334 151.368 17.5863 152.328 18.0908C153.288 18.5791 154.118 19.3115 154.818 20.2881C155.535 21.2484 156.088 22.4365 156.479 23.8525C156.885 25.2523 157.089 26.8636 157.089 28.6865ZM169.676 20.0195C168.862 20.0195 168.121 20.1823 167.454 20.5078C166.803 20.8171 166.233 21.2646 165.745 21.8506C165.257 22.4202 164.85 23.112 164.524 23.9258C164.215 24.7396 163.995 25.6348 163.865 26.6113H173.533C173.908 26.6113 174.152 26.5544 174.266 26.4404C174.396 26.3102 174.461 26.0742 174.461 25.7324C174.461 25.2767 174.396 24.7233 174.266 24.0723C174.135 23.4212 173.891 22.7946 173.533 22.1924C173.191 21.5902 172.711 21.0775 172.093 20.6543C171.474 20.2311 170.669 20.0195 169.676 20.0195ZM179.075 27.2217C178.782 27.5472 178.351 27.8727 177.781 28.1982C177.212 28.5075 176.666 28.7679 176.146 28.9795H163.743C163.759 30.2165 163.93 31.3883 164.256 32.4951C164.581 33.5856 165.037 34.5378 165.623 35.3516C166.209 36.1654 166.917 36.8164 167.747 37.3047C168.593 37.7767 169.546 38.0127 170.604 38.0127C171.108 38.0127 171.596 37.9801 172.068 37.915C172.557 37.8499 173.077 37.7116 173.631 37.5C174.184 37.2721 174.803 36.9466 175.486 36.5234C176.17 36.1003 176.976 35.5306 177.903 34.8145C178.115 34.9284 178.318 35.1237 178.514 35.4004C178.709 35.6771 178.847 35.8805 178.929 36.0107C177.822 37.1826 176.845 38.1266 175.999 38.8428C175.153 39.5589 174.347 40.1204 173.582 40.5273C172.833 40.918 172.085 41.1784 171.336 41.3086C170.604 41.4388 169.798 41.5039 168.919 41.5039C167.617 41.5039 166.38 41.2354 165.208 40.6982C164.052 40.1449 163.035 39.3717 162.156 38.3789C161.277 37.3861 160.577 36.1898 160.057 34.79C159.536 33.3903 159.275 31.8278 159.275 30.1025C159.275 29.012 159.389 27.946 159.617 26.9043C159.861 25.8626 160.203 24.8861 160.643 23.9746C161.098 23.0632 161.652 22.2168 162.303 21.4355C162.954 20.6543 163.702 19.9707 164.549 19.3848C164.939 19.1081 165.371 18.8477 165.843 18.6035C166.315 18.3594 166.803 18.1478 167.308 17.9688C167.828 17.7734 168.357 17.6188 168.895 17.5049C169.432 17.391 169.944 17.334 170.433 17.334C171.491 17.334 172.443 17.4723 173.289 17.749C174.135 18.0257 174.876 18.4082 175.511 18.8965C176.162 19.3685 176.707 19.93 177.146 20.5811C177.602 21.2321 177.968 21.9238 178.245 22.6562C178.538 23.3887 178.75 24.1455 178.88 24.9268C179.01 25.708 179.075 26.473 179.075 27.2217ZM199.084 18.2861C199.23 18.3838 199.287 18.7093 199.255 19.2627C199.222 19.7998 199.133 20.4264 198.986 21.1426C198.856 21.8587 198.685 22.583 198.474 23.3154C198.262 24.0316 198.059 24.6094 197.863 25.0488H196.569C196.39 23.7305 196.065 22.7458 195.593 22.0947C195.121 21.4437 194.543 21.1182 193.859 21.1182C193.518 21.1182 193.119 21.2402 192.663 21.4844C192.224 21.7285 191.76 22.1273 191.271 22.6807C190.783 23.2178 190.295 23.9258 189.807 24.8047C189.335 25.6836 188.887 26.766 188.464 28.0518V37.9883C188.464 38.2324 188.781 38.4847 189.416 38.7451C190.051 39.0055 191.133 39.2497 192.663 39.4775V40.7715H180.725V39.4775C181.799 39.2334 182.621 38.9974 183.19 38.7695C183.776 38.5254 184.069 38.265 184.069 37.9883V24.1943C184.069 23.6572 184.053 23.2096 184.021 22.8516C183.988 22.4772 183.947 22.1761 183.898 21.9482C183.85 21.7204 183.785 21.5413 183.703 21.4111C183.638 21.2809 183.573 21.1751 183.508 21.0938C183.394 20.9798 183.272 20.8903 183.142 20.8252C183.011 20.7438 182.84 20.6787 182.629 20.6299C182.417 20.5811 182.157 20.5485 181.848 20.5322C181.555 20.4997 181.18 20.4671 180.725 20.4346V19.2139C181.376 19.0837 181.986 18.9535 182.556 18.8232C183.125 18.693 183.671 18.5547 184.191 18.4082C184.712 18.2617 185.217 18.1071 185.705 17.9443C186.21 17.7653 186.706 17.5618 187.194 17.334L188.098 18.2373L188.415 23.1201C188.854 22.3063 189.335 21.5495 189.855 20.8496C190.393 20.1497 190.954 19.5394 191.54 19.0186C192.142 18.4977 192.769 18.0908 193.42 17.7979C194.087 17.4886 194.771 17.334 195.471 17.334C196.04 17.334 196.634 17.4072 197.253 17.5537C197.871 17.7002 198.482 17.9443 199.084 18.2861ZM216.494 49.3408C216.348 49.471 216.16 49.6012 215.933 49.7314C215.705 49.8617 215.461 49.9837 215.2 50.0977C214.956 50.2116 214.704 50.3174 214.443 50.415C214.183 50.5127 213.955 50.5941 213.76 50.6592L212.832 50.0488V1.24512C213.288 0.968424 213.735 0.724284 214.175 0.512695C214.631 0.301107 215.094 0.130208 215.566 0L216.494 0.585938V49.3408ZM252.215 34.3262C252.15 35.026 252.068 35.7096 251.971 36.377C251.889 37.0443 251.8 37.6709 251.702 38.2568C251.621 38.8265 251.531 39.3311 251.434 39.7705C251.352 40.1937 251.279 40.5273 251.214 40.7715H229.729V39.4775C230.836 39.2497 231.691 39.0055 232.293 38.7451C232.895 38.4684 233.196 38.2161 233.196 37.9883V12.8174C233.196 12.6221 232.911 12.3779 232.342 12.085C231.772 11.792 230.901 11.5316 229.729 11.3037V10.0098H241.326V11.3037C240.219 11.5316 239.357 11.7839 238.738 12.0605C238.136 12.3372 237.835 12.5895 237.835 12.8174V36.5234C237.835 36.8164 237.9 37.0768 238.03 37.3047C238.177 37.5163 238.421 37.7035 238.763 37.8662C239.104 38.0127 239.568 38.1266 240.154 38.208C240.74 38.2894 241.481 38.3301 242.376 38.3301H245.623C246.372 38.3301 246.998 38.2731 247.503 38.1592C248.024 38.0452 248.479 37.8255 248.87 37.5C249.261 37.1745 249.611 36.7188 249.92 36.1328C250.245 35.5469 250.579 34.7738 250.921 33.8135L252.215 34.3262ZM263.654 20.0195C262.84 20.0195 262.1 20.1823 261.433 20.5078C260.782 20.8171 260.212 21.2646 259.724 21.8506C259.235 22.4202 258.828 23.112 258.503 23.9258C258.194 24.7396 257.974 25.6348 257.844 26.6113H267.512C267.886 26.6113 268.13 26.5544 268.244 26.4404C268.374 26.3102 268.439 26.0742 268.439 25.7324C268.439 25.2767 268.374 24.7233 268.244 24.0723C268.114 23.4212 267.87 22.7946 267.512 22.1924C267.17 21.5902 266.69 21.0775 266.071 20.6543C265.453 20.2311 264.647 20.0195 263.654 20.0195ZM273.054 27.2217C272.761 27.5472 272.329 27.8727 271.76 28.1982C271.19 28.5075 270.645 28.7679 270.124 28.9795H257.722C257.738 30.2165 257.909 31.3883 258.234 32.4951C258.56 33.5856 259.016 34.5378 259.602 35.3516C260.188 36.1654 260.896 36.8164 261.726 37.3047C262.572 37.7767 263.524 38.0127 264.582 38.0127C265.087 38.0127 265.575 37.9801 266.047 37.915C266.535 37.8499 267.056 37.7116 267.609 37.5C268.163 37.2721 268.781 36.9466 269.465 36.5234C270.148 36.1003 270.954 35.5306 271.882 34.8145C272.093 34.9284 272.297 35.1237 272.492 35.4004C272.688 35.6771 272.826 35.8805 272.907 36.0107C271.8 37.1826 270.824 38.1266 269.978 38.8428C269.131 39.5589 268.326 40.1204 267.561 40.5273C266.812 40.918 266.063 41.1784 265.314 41.3086C264.582 41.4388 263.776 41.5039 262.897 41.5039C261.595 41.5039 260.358 41.2354 259.187 40.6982C258.031 40.1449 257.014 39.3717 256.135 38.3789C255.256 37.3861 254.556 36.1898 254.035 34.79C253.514 33.3903 253.254 31.8278 253.254 30.1025C253.254 29.012 253.368 27.946 253.596 26.9043C253.84 25.8626 254.182 24.8861 254.621 23.9746C255.077 23.0632 255.63 22.2168 256.281 21.4355C256.932 20.6543 257.681 19.9707 258.527 19.3848C258.918 19.1081 259.349 18.8477 259.821 18.6035C260.293 18.3594 260.782 18.1478 261.286 17.9688C261.807 17.7734 262.336 17.6188 262.873 17.5049C263.41 17.391 263.923 17.334 264.411 17.334C265.469 17.334 266.421 17.4723 267.268 17.749C268.114 18.0257 268.854 18.4082 269.489 18.8965C270.14 19.3685 270.686 19.93 271.125 20.5811C271.581 21.2321 271.947 21.9238 272.224 22.6562C272.517 23.3887 272.728 24.1455 272.858 24.9268C272.989 25.708 273.054 26.473 273.054 27.2217ZM297.872 19.3604C297.384 19.4743 296.985 19.5801 296.676 19.6777C296.383 19.7754 296.139 19.8893 295.943 20.0195C295.764 20.1335 295.626 20.2718 295.528 20.4346C295.431 20.5811 295.333 20.7764 295.235 21.0205L288.326 39.1357C288.18 39.4938 287.96 39.8112 287.667 40.0879C287.39 40.3483 287.081 40.5762 286.739 40.7715C286.397 40.9668 286.048 41.1214 285.689 41.2354C285.331 41.3493 285.014 41.4388 284.737 41.5039L276.485 21.0205C276.323 20.5648 276.046 20.223 275.655 19.9951C275.265 19.751 274.662 19.5394 273.849 19.3604V18.0664H283.81V19.3604C283.175 19.4417 282.662 19.5231 282.271 19.6045C281.881 19.6859 281.588 19.7917 281.393 19.9219C281.197 20.0358 281.083 20.1823 281.051 20.3613C281.035 20.5404 281.075 20.7601 281.173 21.0205L286.935 35.5469L292.33 21.0205C292.428 20.7764 292.468 20.5729 292.452 20.4102C292.436 20.2311 292.338 20.0846 292.159 19.9707C291.996 19.8405 291.736 19.7347 291.378 19.6533C291.036 19.5557 290.572 19.458 289.986 19.3604V18.0664H297.872V19.3604ZM309.043 20.0195C308.229 20.0195 307.489 20.1823 306.821 20.5078C306.17 20.8171 305.601 21.2646 305.112 21.8506C304.624 22.4202 304.217 23.112 303.892 23.9258C303.582 24.7396 303.363 25.6348 303.232 26.6113H312.9C313.275 26.6113 313.519 26.5544 313.633 26.4404C313.763 26.3102 313.828 26.0742 313.828 25.7324C313.828 25.2767 313.763 24.7233 313.633 24.0723C313.503 23.4212 313.258 22.7946 312.9 22.1924C312.559 21.5902 312.078 21.0775 311.46 20.6543C310.841 20.2311 310.036 20.0195 309.043 20.0195ZM318.442 27.2217C318.149 27.5472 317.718 27.8727 317.148 28.1982C316.579 28.5075 316.034 28.7679 315.513 28.9795H303.11C303.127 30.2165 303.298 31.3883 303.623 32.4951C303.949 33.5856 304.404 34.5378 304.99 35.3516C305.576 36.1654 306.284 36.8164 307.114 37.3047C307.961 37.7767 308.913 38.0127 309.971 38.0127C310.475 38.0127 310.964 37.9801 311.436 37.915C311.924 37.8499 312.445 37.7116 312.998 37.5C313.551 37.2721 314.17 36.9466 314.854 36.5234C315.537 36.1003 316.343 35.5306 317.271 34.8145C317.482 34.9284 317.686 35.1237 317.881 35.4004C318.076 35.6771 318.215 35.8805 318.296 36.0107C317.189 37.1826 316.213 38.1266 315.366 38.8428C314.52 39.5589 313.714 40.1204 312.949 40.5273C312.201 40.918 311.452 41.1784 310.703 41.3086C309.971 41.4388 309.165 41.5039 308.286 41.5039C306.984 41.5039 305.747 41.2354 304.575 40.6982C303.42 40.1449 302.402 39.3717 301.523 38.3789C300.645 37.3861 299.945 36.1898 299.424 34.79C298.903 33.3903 298.643 31.8278 298.643 30.1025C298.643 29.012 298.757 27.946 298.984 26.9043C299.229 25.8626 299.57 24.8861 300.01 23.9746C300.465 23.0632 301.019 22.2168 301.67 21.4355C302.321 20.6543 303.07 19.9707 303.916 19.3848C304.307 19.1081 304.738 18.8477 305.21 18.6035C305.682 18.3594 306.17 18.1478 306.675 17.9688C307.196 17.7734 307.725 17.6188 308.262 17.5049C308.799 17.391 309.312 17.334 309.8 17.334C310.858 17.334 311.81 17.4723 312.656 17.749C313.503 18.0257 314.243 18.4082 314.878 18.8965C315.529 19.3685 316.074 19.93 316.514 20.5811C316.969 21.2321 317.336 21.9238 317.612 22.6562C317.905 23.3887 318.117 24.1455 318.247 24.9268C318.377 25.708 318.442 26.473 318.442 27.2217ZM320.214 40.7715V39.4775C320.914 39.3636 321.492 39.2497 321.947 39.1357C322.419 39.0055 322.785 38.8835 323.046 38.7695C323.323 38.6393 323.518 38.5091 323.632 38.3789C323.746 38.2487 323.803 38.1185 323.803 37.9883V9.375C323.803 8.64258 323.754 8.07292 323.656 7.66602C323.575 7.25911 323.404 6.95801 323.144 6.7627C322.899 6.55111 322.558 6.41276 322.118 6.34766C321.695 6.26628 321.142 6.1849 320.458 6.10352V4.88281C321.109 4.76888 321.728 4.65495 322.313 4.54102C322.899 4.41081 323.469 4.27246 324.022 4.12598C324.576 3.97949 325.113 3.80859 325.634 3.61328C326.171 3.41797 326.716 3.1901 327.27 2.92969L328.197 3.80859V37.9883C328.197 38.2324 328.466 38.4847 329.003 38.7451C329.54 39.0055 330.476 39.2497 331.811 39.4775V40.7715H320.214ZM355.544 15.8691L346.901 29.4189H355.544V15.8691ZM363.405 30.1514C363.063 30.6722 362.714 31.1035 362.355 31.4453C362.014 31.7708 361.656 32.0719 361.281 32.3486H359.694V37.9883C359.694 38.1185 359.743 38.2406 359.841 38.3545C359.938 38.4521 360.118 38.5661 360.378 38.6963C360.638 38.8102 360.988 38.9323 361.428 39.0625C361.867 39.1927 362.421 39.3311 363.088 39.4775V40.7715H350.417V39.4775C351.475 39.2985 352.338 39.1357 353.005 38.9893C353.672 38.8265 354.193 38.68 354.567 38.5498C354.942 38.4033 355.194 38.265 355.324 38.1348C355.471 38.0046 355.544 37.8662 355.544 37.7197V32.3486H343.605L342.727 31.4697L354.714 12.1582C355.43 11.8815 356.138 11.5804 356.838 11.2549C357.538 10.9294 358.173 10.6364 358.742 10.376L359.694 11.2793V29.4189H362.771L363.405 30.1514Z" fill="white"/>
</g>
<defs>
<filter id="filter0_i_31_35" x="0" y="0" width="363.405" height="56.4902" filterUnits="userSpaceOnUse" color-interpolation-filters="sRGB">
<feFlood flood-opacity="0" result="BackgroundImageFix"/>
<feBlend mode="normal" in="SourceGraphic" in2="BackgroundImageFix" result="shape"/>
<feColorMatrix in="SourceAlpha" type="matrix" values="0 0 0 0 0 0 0 0 0 0 0 0 0 0 0 0 0 0 127 0" result="hardAlpha"/>
<feOffset dy="4"/>
<feGaussianBlur stdDeviation="2"/>
<feComposite in2="hardAlpha" operator="arithmetic" k2="-1" k3="1"/>
<feColorMatrix type="matrix" values="0 0 0 0 0.631373 0 0 0 0 0.572549 0 0 0 0 1 0 0 0 0.64 0"/>
<feBlend mode="normal" in2="shape" result="effect1_innerShadow_31_35"/>
</filter>
</defs>
</svg>
